<mxfile host="app.diagrams.net" modified="2023-04-28T14:07:35.554Z" agent="Mozilla/5.0 (Windows NT 10.0; Win64; x64) AppleWebKit/537.36 (KHTML, like Gecko) Chrome/112.0.0.0 Safari/537.36 Edg/112.0.1722.64" etag="2RKvHjwsM6DUCP1_vD-7" version="21.2.3" type="device">
  <diagram name="Page-1" id="jtJvvlNLqTzWmvwgi30S">
    <mxGraphModel dx="1309" dy="756" grid="1" gridSize="10" guides="1" tooltips="1" connect="1" arrows="1" fold="1" page="1" pageScale="1" pageWidth="850" pageHeight="1100" math="0" shadow="0">
      <root>
        <mxCell id="0" />
        <mxCell id="1" parent="0" />
        <mxCell id="Lv8fNPfNvx3G_kLbIwf--4" style="edgeStyle=orthogonalEdgeStyle;rounded=0;orthogonalLoop=1;jettySize=auto;html=1;exitX=0.5;exitY=0.5;exitDx=0;exitDy=0;exitPerimeter=0;entryX=0;entryY=0.5;entryDx=0;entryDy=0;" parent="1" source="Fi8tZD0OYvIXoU_qMFUP-1" target="Fi8tZD0OYvIXoU_qMFUP-5" edge="1">
          <mxGeometry relative="1" as="geometry" />
        </mxCell>
        <mxCell id="Fi8tZD0OYvIXoU_qMFUP-1" value="Organisation" style="shape=umlActor;verticalLabelPosition=bottom;verticalAlign=top;html=1;outlineConnect=0;" parent="1" vertex="1">
          <mxGeometry x="180" y="280" width="50" height="110" as="geometry" />
        </mxCell>
        <mxCell id="Fi8tZD0OYvIXoU_qMFUP-4" value="World System" style="swimlane;whiteSpace=wrap;html=1;" parent="1" vertex="1">
          <mxGeometry x="325" y="260" width="200" height="305" as="geometry" />
        </mxCell>
        <mxCell id="Fi8tZD0OYvIXoU_qMFUP-10" style="edgeStyle=orthogonalEdgeStyle;rounded=0;orthogonalLoop=1;jettySize=auto;html=1;exitX=0.5;exitY=1;exitDx=0;exitDy=0;entryX=0.5;entryY=0;entryDx=0;entryDy=0;" parent="Fi8tZD0OYvIXoU_qMFUP-4" source="Fi8tZD0OYvIXoU_qMFUP-5" target="Fi8tZD0OYvIXoU_qMFUP-8" edge="1">
          <mxGeometry relative="1" as="geometry" />
        </mxCell>
        <mxCell id="Fi8tZD0OYvIXoU_qMFUP-5" value="Generate Reports" style="ellipse;whiteSpace=wrap;html=1;" parent="Fi8tZD0OYvIXoU_qMFUP-4" vertex="1">
          <mxGeometry x="30" y="35" width="140" height="80" as="geometry" />
        </mxCell>
        <mxCell id="Fi8tZD0OYvIXoU_qMFUP-8" value="Print Reports" style="ellipse;whiteSpace=wrap;html=1;" parent="Fi8tZD0OYvIXoU_qMFUP-4" vertex="1">
          <mxGeometry x="30" y="195" width="140" height="80" as="geometry" />
        </mxCell>
        <mxCell id="Lv8fNPfNvx3G_kLbIwf--2" value="Include" style="text;html=1;strokeColor=none;fillColor=none;align=center;verticalAlign=middle;whiteSpace=wrap;rounded=0;" parent="Fi8tZD0OYvIXoU_qMFUP-4" vertex="1">
          <mxGeometry x="40" y="137.5" width="60" height="30" as="geometry" />
        </mxCell>
        <mxCell id="Lv8fNPfNvx3G_kLbIwf--5" value="" style="endArrow=none;html=1;rounded=0;entryX=0;entryY=0.5;entryDx=0;entryDy=0;entryPerimeter=0;" parent="Fi8tZD0OYvIXoU_qMFUP-4" target="Lv8fNPfNvx3G_kLbIwf--1" edge="1">
          <mxGeometry width="50" height="50" relative="1" as="geometry">
            <mxPoint x="170" y="74.5" as="sourcePoint" />
            <mxPoint x="260" y="74.5" as="targetPoint" />
          </mxGeometry>
        </mxCell>
        <mxCell id="Lv8fNPfNvx3G_kLbIwf--1" value="World Database" style="shape=cylinder3;whiteSpace=wrap;html=1;boundedLbl=1;backgroundOutline=1;size=15;" parent="1" vertex="1">
          <mxGeometry x="630" y="282.5" width="90" height="105" as="geometry" />
        </mxCell>
      </root>
    </mxGraphModel>
  </diagram>
</mxfile>
